<svg width="138" height="24" viewBox="0 0 138 24" fill="none" xmlns="http://www.w3.org/2000/svg">
<path d="M5.10988 19.448H12.4699V23H0.629875V0.664H5.10988V19.448ZM29.0134 18.744H20.1174L18.6454 23H13.9414L21.9734 0.631998H27.1894L35.2214 23H30.4854L29.0134 18.744ZM27.7974 15.16L24.5654 5.816L21.3334 15.16H27.7974ZM50.8956 11.544C52.1543 11.7787 53.189 12.408 53.9996 13.432C54.8103 14.456 55.2156 15.6293 55.2156 16.952C55.2156 18.1467 54.917 19.2027 54.3196 20.12C53.7436 21.016 52.901 21.72 51.7916 22.232C50.6823 22.744 49.3703 23 47.8556 23H38.2236V0.664H47.4396C48.9543 0.664 50.2556 0.909333 51.3436 1.4C52.453 1.89067 53.285 2.57333 53.8396 3.448C54.4156 4.32267 54.7036 5.31467 54.7036 6.424C54.7036 7.72533 54.3516 8.81333 53.6476 9.688C52.965 10.5627 52.0476 11.1813 50.8956 11.544ZM42.7036 9.88H46.7996C47.8663 9.88 48.6876 9.64533 49.2636 9.176C49.8396 8.68533 50.1276 7.992 50.1276 7.096C50.1276 6.2 49.8396 5.50667 49.2636 5.016C48.6876 4.52533 47.8663 4.28 46.7996 4.28H42.7036V9.88ZM47.2156 19.352C48.3036 19.352 49.1463 19.096 49.7436 18.584C50.3623 18.072 50.6716 17.3467 50.6716 16.408C50.6716 15.448 50.3516 14.7013 49.7116 14.168C49.0716 13.6133 48.2076 13.336 47.1196 13.336H42.7036V19.352H47.2156ZM73.9861 0.664V4.28H68.0341V23H63.5541V4.28H57.6021V0.664H73.9861ZM81.7349 4.28V9.88H89.2549V13.432H81.7349V19.352H90.2149V23H77.2549V0.631998H90.2149V4.28H81.7349Z" fill="white"/>
<path d="M93.1981 11.8C93.1981 9.60267 93.6888 7.64 94.6701 5.912C95.6728 4.16267 97.0275 2.808 98.7341 1.848C100.462 0.866666 102.393 0.375999 104.526 0.375999C107.022 0.375999 109.209 1.016 111.086 2.296C112.963 3.576 114.275 5.34667 115.022 7.608H109.87C109.358 6.54133 108.633 5.74133 107.694 5.208C106.777 4.67467 105.71 4.408 104.494 4.408C103.193 4.408 102.03 4.71733 101.006 5.336C100.003 5.93333 99.2141 6.78667 98.6381 7.896C98.0835 9.00533 97.8061 10.3067 97.8061 11.8C97.8061 13.272 98.0835 14.5733 98.6381 15.704C99.2141 16.8133 100.003 17.6773 101.006 18.296C102.03 18.8933 103.193 19.192 104.494 19.192C105.71 19.192 106.777 18.9253 107.694 18.392C108.633 17.8373 109.358 17.0267 109.87 15.96H115.022C114.275 18.2427 112.963 20.024 111.086 21.304C109.23 22.5627 107.043 23.192 104.526 23.192C102.393 23.192 100.462 22.712 98.7341 21.752C97.0275 20.7707 95.6728 19.416 94.6701 17.688C93.6888 15.96 93.1981 13.9973 93.1981 11.8ZM137.377 0.664V23H132.897V13.496H123.329V23H118.849V0.664H123.329V9.848H132.897V0.664H137.377Z" fill="#FF5C00"/>
</svg>
