<svg width="171" height="30" viewBox="0 0 171 30" fill="none" xmlns="http://www.w3.org/2000/svg">
<path d="M5.63734 24.56H14.8373V29H0.037344V1.08H5.63734V24.56ZM35.5167 23.68H24.3967L22.5567 29H16.6767L26.7167 1.04H33.2367L43.2767 29H37.3567L35.5167 23.68ZM33.9967 19.2L29.9567 7.52L25.9167 19.2H33.9967ZM62.8695 14.68C64.4429 14.9733 65.7362 15.76 66.7495 17.04C67.7629 18.32 68.2695 19.7867 68.2695 21.44C68.2695 22.9333 67.8962 24.2533 67.1495 25.4C66.4295 26.52 65.3762 27.4 63.9895 28.04C62.6029 28.68 60.9629 29 59.0695 29H47.0295V1.08H58.5495C60.4429 1.08 62.0695 1.38667 63.4295 2C64.8162 2.61333 65.8562 3.46667 66.5495 4.56C67.2695 5.65333 67.6295 6.89333 67.6295 8.28C67.6295 9.90667 67.1895 11.2667 66.3095 12.36C65.4562 13.4533 64.3095 14.2267 62.8695 14.68ZM52.6295 12.6H57.7495C59.0829 12.6 60.1095 12.3067 60.8295 11.72C61.5495 11.1067 61.9095 10.24 61.9095 9.12C61.9095 8 61.5495 7.13333 60.8295 6.52C60.1095 5.90667 59.0829 5.6 57.7495 5.6H52.6295V12.6ZM58.2695 24.44C59.6295 24.44 60.6829 24.12 61.4295 23.48C62.2029 22.84 62.5895 21.9333 62.5895 20.76C62.5895 19.56 62.1895 18.6267 61.3895 17.96C60.5895 17.2667 59.5095 16.92 58.1495 16.92H52.6295V24.44H58.2695ZM91.7327 1.08V5.6H84.2927V29H78.6927V5.6H71.2527V1.08H91.7327ZM101.419 5.6V12.6H110.819V17.04H101.419V24.44H112.019V29H95.8186V1.04H112.019V5.6H101.419Z" fill="white"/>
<path d="M115.748 15C115.748 12.2533 116.361 9.8 117.588 7.64C118.841 5.45333 120.534 3.76 122.668 2.56C124.828 1.33333 127.241 0.719999 129.908 0.719999C133.028 0.719999 135.761 1.52 138.108 3.12C140.454 4.72 142.094 6.93333 143.028 9.76H136.588C135.948 8.42667 135.041 7.42667 133.868 6.76C132.721 6.09333 131.388 5.76 129.868 5.76C128.241 5.76 126.788 6.14667 125.508 6.92C124.254 7.66666 123.268 8.73333 122.548 10.12C121.854 11.5067 121.508 13.1333 121.508 15C121.508 16.84 121.854 18.4667 122.548 19.88C123.268 21.2667 124.254 22.3467 125.508 23.12C126.788 23.8667 128.241 24.24 129.868 24.24C131.388 24.24 132.721 23.9067 133.868 23.24C135.041 22.5467 135.948 21.5333 136.588 20.2H143.028C142.094 23.0533 140.454 25.28 138.108 26.88C135.788 28.4533 133.054 29.24 129.908 29.24C127.241 29.24 124.828 28.64 122.668 27.44C120.534 26.2133 118.841 24.52 117.588 22.36C116.361 20.2 115.748 17.7467 115.748 15ZM170.971 1.08V29H165.371V17.12H153.411V29H147.811V1.08H153.411V12.56H165.371V1.08H170.971Z" fill="#FF5C00"/>
</svg>
